<?xml version="1.0" encoding="UTF-8" standalone="no"?><!DOCTYPE svg PUBLIC "-//W3C//DTD SVG 1.1//EN" "http://www.w3.org/Graphics/SVG/1.1/DTD/svg11.dtd"><svg width="100%" height="100%" viewBox="0 0 2250 2250" version="1.1" xmlns="http://www.w3.org/2000/svg" xmlns:xlink="http://www.w3.org/1999/xlink" xml:space="preserve" xmlns:serif="http://www.serif.com/" style="fill-rule:evenodd;clip-rule:evenodd;stroke-linecap:round;stroke-linejoin:round;stroke-miterlimit:1.5;"><circle cx="1125" cy="1125" r="1125" style="fill:#ea3546;"/><g id="Icon"><g id="CurveTool"><path d="M1136.23,638.739l0,455.357" style="fill:none;stroke:#000;stroke-width:33.33px;"/><path d="M1264.25,1714.63l-258.143,-0" style="fill:none;stroke:#000;stroke-width:33.33px;"/><circle cx="1136.23" cy="1054.54" r="84.032"/><path d="M996.727,1944.36l-0,-546.079c-0,-85.248 -31.981,-167.395 -89.621,-230.203l-99.922,-108.882l329.045,-420.452l329.045,420.452l-99.922,108.882c-57.64,62.808 -89.621,144.955 -89.621,230.203l0,546.079l-279.004,-0Z" style="fill-opacity:0;stroke:#000;stroke-width:33.33px;"/></g><g id="Curve"><path d="M1136.23,385.311l669.23,-0" style="fill:none;stroke:#000;stroke-width:33.33px;"/><path d="M1136.23,385.311c177.49,-0 347.711,70.507 473.216,196.012c125.505,125.505 196.012,295.726 196.012,473.216" style="fill:#ea3546;fill-opacity:0;stroke:#000;stroke-width:33.33px;"/><circle cx="1805.46" cy="1054.54" r="79.665"/><circle cx="1805.46" cy="385.311" r="79.665"/><path d="M1113.77,385.311l-669.23,-0" style="fill:none;stroke:#000;stroke-width:33.33px;"/><path d="M1113.77,385.311c-177.49,-0 -347.711,70.507 -473.216,196.012c-125.505,125.505 -196.012,295.726 -196.012,473.216" style="fill:#ea3546;fill-opacity:0;stroke:#000;stroke-width:33.33px;"/><circle cx="444.541" cy="1054.54" r="79.665"/><circle cx="444.541" cy="385.311" r="79.665"/><circle cx="1136.23" cy="385.311" r="79.665"/></g></g></svg>