<?xml version="1.0" encoding="UTF-8" standalone="no"?><!DOCTYPE svg PUBLIC "-//W3C//DTD SVG 1.1//EN" "http://www.w3.org/Graphics/SVG/1.1/DTD/svg11.dtd"><svg width="100%" height="100%" viewBox="0 0 2250 2250" version="1.1" xmlns="http://www.w3.org/2000/svg" xmlns:xlink="http://www.w3.org/1999/xlink" xml:space="preserve" xmlns:serif="http://www.serif.com/" style="fill-rule:evenodd;clip-rule:evenodd;stroke-linejoin:round;stroke-miterlimit:2;"><circle cx="1125" cy="1125" r="1125" style="fill:#43bccd;"/><path d="M1564.92,815.148c-9.611,-9.611 -15.011,-22.647 -15.011,-36.239c0,-0.003 0,-0.006 0,-0.008c0,-21.918 13.203,-41.678 33.453,-50.065c20.249,-8.388 43.557,-3.752 59.056,11.747c104.862,104.862 270.914,270.914 345.679,345.679c21.394,21.394 21.394,56.082 0,77.476c-74.765,74.765 -240.817,240.817 -345.679,345.679c-15.499,15.499 -38.807,20.135 -59.056,11.747c-20.25,-8.387 -33.453,-28.147 -33.453,-50.065c0,-4.454 0,-8.373 0,-11.592c0,-6.175 2.453,-12.097 6.82,-16.464c35.728,-35.728 202.607,-202.607 279.305,-279.305c10.274,-10.274 16.046,-24.208 16.046,-38.738c-0,-14.53 -5.772,-28.464 -16.046,-38.738c-71.9,-71.9 -223.05,-223.05 -271.114,-271.114Z"/><path d="M685.077,1434.85c9.611,9.611 15.011,22.647 15.011,36.239l-0,0.008c-0,21.918 -13.203,41.678 -33.453,50.065c-20.249,8.388 -43.557,3.752 -59.056,-11.747l-345.679,-345.679c-21.394,-21.394 -21.394,-56.082 -0,-77.476l345.679,-345.679c15.499,-15.499 38.807,-20.135 59.056,-11.747c20.25,8.387 33.453,28.147 33.453,50.065l-0,11.592c-0,6.175 -2.453,12.097 -6.82,16.464l-279.305,279.305c-10.274,10.274 -16.046,24.208 -16.046,38.738c0,14.53 5.772,28.464 16.046,38.738l271.114,271.114Z"/><path d="M779.962,1679.56c-26.203,-15.128 -35.18,-48.634 -20.052,-74.836c106.397,-184.286 491.597,-851.472 597.994,-1035.76c15.128,-26.203 48.634,-35.181 74.836,-20.053c12.129,7.003 25.17,14.532 37.298,21.534c26.203,15.128 35.18,48.634 20.052,74.836c-106.397,184.286 -491.597,851.472 -597.994,1035.76c-15.128,26.203 -48.634,35.181 -74.836,20.053c-12.129,-7.003 -25.17,-14.532 -37.298,-21.534Z"/></svg>